<svg width="48" height="48" viewBox="0 0 48 48" fill="none" xmlns="http://www.w3.org/2000/svg">
<path d="M31 13.0332H35.2C35.9426 13.0332 36.6548 13.2474 37.1799 13.6287C37.705 14.0101 38 14.5272 38 15.0665V35.3996C38 35.9388 37.705 36.456 37.1799 36.8373C36.6548 37.2186 35.9426 37.4329 35.2 37.4329H12.8C12.0574 37.4329 11.3452 37.2186 10.8201 36.8373C10.295 36.456 10 35.9388 10 35.3996V15.0665C10 14.5272 10.295 14.0101 10.8201 13.6287C11.3452 13.2474 12.0574 13.0332 12.8 13.0332H17" stroke="black" stroke-width="2" stroke-linecap="round" stroke-linejoin="round"/>
<path d="M28.2007 11H19.8007C18.2543 11 17.0007 11.9103 17.0007 13.0333V14.05C17.0007 15.1729 18.2543 16.0833 19.8007 16.0833H28.2007C29.7471 16.0833 31.0007 15.1729 31.0007 14.05V13.0333C31.0007 11.9103 29.7471 11 28.2007 11Z" stroke="black" stroke-width="2" stroke-linecap="round" stroke-linejoin="round"/>
<path d="M23.9998 22.1831V30.3163" stroke="black" stroke-width="2" stroke-linecap="round" stroke-linejoin="round"/>
<path d="M29.5994 26.2495H18.3994" stroke="black" stroke-width="2" stroke-linecap="round" stroke-linejoin="round"/>
</svg>
