<svg width="48" height="48" viewBox="0 0 48 48" fill="none" xmlns="http://www.w3.org/2000/svg">
<path fill-rule="evenodd" clip-rule="evenodd" d="M20.7165 24L30.94 34.3631C31.7608 35.1951 31.7608 36.544 30.94 37.376C30.1192 38.208 28.7885 38.208 27.9677 37.376L16.9051 26.1623C16.6241 25.8871 16.3995 25.5583 16.2441 25.1946C16.0831 24.8175 16 24.4109 16 24C16 23.5891 16.0831 23.1825 16.2441 22.8054C16.3995 22.4417 16.6241 22.1129 16.9051 21.8377L27.9677 10.624C28.7884 9.792 30.1192 9.792 30.94 10.624C31.7607 11.456 31.7607 12.8049 30.94 13.6369L20.7165 24Z" fill="#FF8174"/>
</svg>
