<svg width="48" height="48" viewBox="0 0 48 48" fill="none" xmlns="http://www.w3.org/2000/svg">
<path fill-rule="evenodd" clip-rule="evenodd" d="M27.2835 24L17.06 13.6369C16.2392 12.8049 16.2392 11.456 17.06 10.624C17.8808 9.792 19.2115 9.792 20.0323 10.624L31.0949 21.8377C31.3759 22.1129 31.6005 22.4417 31.7559 22.8054C31.9169 23.1825 32 23.5891 32 24C32 24.4109 31.9169 24.8175 31.7559 25.1946C31.6005 25.5583 31.3759 25.8871 31.0949 26.1623L20.0323 37.376C19.2116 38.208 17.8808 38.208 17.06 37.376C16.2393 36.544 16.2393 35.1951 17.06 34.3631L27.2835 24Z" fill="black"/>
</svg>
