<svg width="48" height="48" viewBox="0 0 48 48" fill="none" xmlns="http://www.w3.org/2000/svg">
<path fill-rule="evenodd" clip-rule="evenodd" d="M24 20.7165L13.6369 30.94C12.8049 31.7608 11.456 31.7608 10.624 30.94C9.792 30.1192 9.792 28.7885 10.624 27.9677L21.8377 16.9051C22.1129 16.6241 22.4417 16.3995 22.8054 16.2441C23.1825 16.0831 23.5891 16 24 16C24.4109 16 24.8175 16.0831 25.1946 16.2441C25.5583 16.3995 25.8871 16.6241 26.1623 16.9051L37.376 27.9677C38.208 28.7884 38.208 30.1192 37.376 30.94C36.544 31.7607 35.1951 31.7607 34.3631 30.94L24 20.7165Z" fill="black"/>
</svg>
