<svg width="48" height="48" viewBox="0 0 48 48" fill="none" xmlns="http://www.w3.org/2000/svg">
<path d="M26.6154 17.5385V11.0769C26.6154 10.7913 26.5019 10.5174 26.3 10.3154C26.098 10.1135 25.8241 10 25.5385 10H22.3077C22.0221 10 21.7482 10.1135 21.5462 10.3154C21.3442 10.5174 21.2308 10.7913 21.2308 11.0769V17.5385C20.2366 18.1993 19.4214 19.0957 18.8577 20.148C18.294 21.2002 17.9994 22.3755 18 23.5692V35.8462C18 36.4174 18.2269 36.9652 18.6308 37.3692C19.0348 37.7731 19.5826 38 20.1538 38H27.6923C28.2635 38 28.8114 37.7731 29.2153 37.3692C29.6192 36.9652 29.8462 36.4174 29.8462 35.8462V23.5692C29.8468 22.3755 29.5521 21.2002 28.9884 20.148C28.4247 19.0957 27.6095 18.1993 26.6154 17.5385Z" stroke="black" stroke-width="2" stroke-linecap="round" stroke-linejoin="round"/>
<path d="M18 25.0771H29.8462" stroke="black" stroke-width="2" stroke-linecap="round" stroke-linejoin="round"/>
<path d="M29.8462 32.6152H18" stroke="black" stroke-width="2" stroke-linecap="round" stroke-linejoin="round"/>
</svg>
