<svg width="48" height="48" viewBox="0 0 48 48" fill="none" xmlns="http://www.w3.org/2000/svg">
<path d="M24 38C31.732 38 38 31.732 38 24C38 16.268 31.732 10 24 10C16.268 10 10 16.268 10 24C10 31.732 16.268 38 24 38Z" stroke="black" stroke-width="2" stroke-linecap="round" stroke-linejoin="round"/>
<path d="M20.7693 20.7693C20.7693 20.1304 20.9588 19.5057 21.3138 18.9744C21.6688 18.4431 22.1733 18.029 22.7637 17.7845C23.354 17.54 24.0036 17.476 24.6303 17.6007C25.2571 17.7253 25.8327 18.033 26.2846 18.4848C26.7364 18.9367 27.0441 19.5123 27.1687 20.1391C27.2934 20.7658 27.2294 21.4154 26.9849 22.0057C26.7404 22.5961 26.3263 23.1006 25.795 23.4556C25.2637 23.8106 24.639 24.0001 24.0001 24.0001V26.154" stroke="black" stroke-width="2" stroke-linecap="round" stroke-linejoin="round"/>
<path d="M23.9999 29.3848C23.6804 29.3848 23.3681 29.4795 23.1024 29.657C22.8368 29.8345 22.6298 30.0868 22.5075 30.382C22.3852 30.6771 22.3532 31.0019 22.4156 31.3153C22.4779 31.6286 22.6317 31.9165 22.8577 32.1424C23.0836 32.3683 23.3714 32.5222 23.6848 32.5845C23.9981 32.6468 24.3229 32.6148 24.6181 32.4926C24.9133 32.3703 25.1655 32.1633 25.3431 31.8976C25.5206 31.632 25.6153 31.3196 25.6153 31.0002C25.6097 30.5735 25.4377 30.1658 25.136 29.8641C24.8342 29.5623 24.4266 29.3903 23.9999 29.3848Z" fill="black"/>
</svg>
