<svg width="45" height="45" viewBox="0 0 45 45" fill="none" xmlns="http://www.w3.org/2000/svg">
<path d="M18.4617 18.4615C20.9709 18.4615 23.005 16.4274 23.005 13.9183C23.005 11.4091 20.9709 9.375 18.4617 9.375C15.9525 9.375 13.9185 11.4091 13.9185 13.9183C13.9185 16.4274 15.9525 18.4615 18.4617 18.4615Z" stroke="black" stroke-width="2" stroke-linecap="round" stroke-linejoin="round"/>
<path d="M17.4519 33.6062H9.375V30.5773C9.39107 29.0383 9.79697 27.5284 10.5548 26.1887C11.3126 24.849 12.3976 23.7233 13.7084 22.9166C15.0193 22.1099 16.5132 21.6487 18.0506 21.5759C19.588 21.5031 21.1188 21.8212 22.5 22.5004" stroke="black" stroke-width="2" stroke-linecap="round" stroke-linejoin="round"/>
<path d="M29.5674 23.5098V35.6252" stroke="black" stroke-width="2" stroke-linecap="round" stroke-linejoin="round"/>
<path d="M23.5098 29.5674H35.6252" stroke="black" stroke-width="2" stroke-linecap="round" stroke-linejoin="round"/>
</svg>
