<svg width="48" height="48" viewBox="0 0 48 48" fill="none" xmlns="http://www.w3.org/2000/svg">
<path d="M37.852 16.6605C37.8103 16.4348 37.7217 16.2205 37.5918 16.0313C37.462 15.8421 37.2937 15.6824 37.0981 15.5624L32.7903 19.8687C32.5893 20.077 32.3484 20.2428 32.082 20.356C31.8155 20.4692 31.529 20.5276 31.2394 20.5276C30.9499 20.5276 30.6634 20.4692 30.3969 20.356C30.1304 20.2428 29.8896 20.077 29.6886 19.8687L28.0517 18.4045C27.657 18.002 27.4359 17.4609 27.4359 16.8973C27.4359 16.3337 27.657 15.7926 28.0517 15.3901L32.3595 11.0838C32.2655 10.8632 32.1242 10.6659 31.9456 10.506C31.7669 10.346 31.5553 10.2272 31.3256 10.158C29.8225 9.85836 28.2655 9.98662 26.8318 10.5282C25.3981 11.0697 24.1453 12.0028 23.216 13.2212C22.2868 14.4395 21.7184 15.8943 21.5756 17.4197C21.4328 18.9451 21.7214 20.48 22.4084 21.8496L10.6481 33.498C10.4429 33.6986 10.2799 33.9381 10.1686 34.2024C10.0573 34.4668 10 34.7507 10 35.0375C10 35.3244 10.0573 35.6083 10.1686 35.8727C10.2799 36.137 10.4429 36.3765 10.6481 36.577L11.4235 37.3522C11.6241 37.5572 11.8636 37.7202 12.1281 37.8314C12.3926 37.9427 12.6766 38 12.9635 38C13.2504 38 13.5345 37.9427 13.7989 37.8314C14.0634 37.7202 14.303 37.5572 14.5036 37.3522L26.2639 25.6176C27.6343 26.2702 29.159 26.5301 30.6683 26.3684C32.1777 26.2067 33.6126 25.6296 34.8134 24.7014C36.0143 23.7731 36.9341 22.5301 37.4705 21.1106C38.007 19.691 38.139 18.1506 37.852 16.6605Z" stroke="#2B2B2B" stroke-width="2" stroke-linecap="round" stroke-linejoin="round"/>
</svg>
