<svg width="48" height="48" viewBox="0 0 48 48" fill="none" xmlns="http://www.w3.org/2000/svg">
<path d="M20.572 23.1048L24.8464 27.0326C25.0316 27.2028 25.1356 27.4336 25.1356 27.6742C25.1356 27.9148 25.0316 28.1456 24.8464 28.3157L18.5488 34.1028C17.793 34.7972 16.768 35.1874 15.6992 35.1874C14.6304 35.1874 13.6053 34.7972 12.8496 34.1028C12.0938 33.4083 11.6692 32.4663 11.6692 31.4842C11.6692 30.502 12.0938 29.5601 12.8496 28.8656L19.1472 23.0786C19.2413 22.992 19.3534 22.9238 19.4769 22.8781C19.6003 22.8324 19.7326 22.8101 19.8657 22.8125C19.9988 22.815 20.13 22.8421 20.2513 22.8923C20.3727 22.9426 20.4818 23.0148 20.572 23.1048Z" stroke="black" stroke-width="2" stroke-linecap="round" stroke-linejoin="round"/>
<path d="M22.7063 25.0535L31.7334 16.7583" stroke="black" stroke-width="2" stroke-linecap="round" stroke-linejoin="round"/>
<path d="M32.4387 17.388L31.0483 16.1104V13.5552L35.2194 11L38 13.5552L35.2194 17.388H32.4387Z" stroke="black" stroke-width="2" stroke-linecap="round" stroke-linejoin="round"/>
</svg>
