<svg width="48" height="48" viewBox="0 0 48 48" fill="none" xmlns="http://www.w3.org/2000/svg">
<path d="M19.6923 20.6923C22.3688 20.6923 24.5385 18.5226 24.5385 15.8462C24.5385 13.1697 22.3688 11 19.6923 11C17.0159 11 14.8462 13.1697 14.8462 15.8462C14.8462 18.5226 17.0159 20.6923 19.6923 20.6923Z" stroke="black" stroke-width="2" stroke-linecap="round" stroke-linejoin="round"/>
<path d="M29.3846 36.8462H10V34.6923C10 32.1217 11.0212 29.6565 12.8388 27.8388C14.6565 26.0212 17.1217 25 19.6923 25C22.2629 25 24.7281 26.0212 26.5458 27.8388C28.3635 29.6565 29.3846 32.1217 29.3846 34.6923V36.8462Z" stroke="black" stroke-width="2" stroke-linecap="round" stroke-linejoin="round"/>
<path d="M28.3076 11C29.5929 11 30.8255 11.5106 31.7344 12.4194C32.6432 13.3282 33.1538 14.5609 33.1538 15.8462C33.1538 17.1314 32.6432 18.3641 31.7344 19.2729C30.8255 20.1817 29.5929 20.6923 28.3076 20.6923" stroke="black" stroke-width="2" stroke-linecap="round" stroke-linejoin="round"/>
<path d="M31.7539 25.4097C33.5886 26.1076 35.1682 27.3462 36.2835 28.9616C37.3989 30.5769 37.9975 32.4928 38.0001 34.4558V36.8466H34.7693" stroke="black" stroke-width="2" stroke-linecap="round" stroke-linejoin="round"/>
</svg>
