<svg width="48" height="48" viewBox="0 0 48 48" fill="none" xmlns="http://www.w3.org/2000/svg">
<path d="M12.2134 27.1914V36.8614C12.2134 37.1464 12.3266 37.4196 12.5281 37.6211C12.7296 37.8226 13.0029 37.9358 13.2878 37.9358H34.7767C35.0617 37.9358 35.3349 37.8226 35.5364 37.6211C35.7379 37.4196 35.8511 37.1464 35.8511 36.8614V27.1914" stroke="black" stroke-width="2" stroke-linecap="round" stroke-linejoin="round"/>
<path d="M26.1812 27.1914V37.9358" stroke="black" stroke-width="2" stroke-linecap="round" stroke-linejoin="round"/>
<path d="M12.2134 30.4141H26.1811" stroke="black" stroke-width="2" stroke-linecap="round" stroke-linejoin="round"/>
<path d="M10.0642 17.5211L13.2875 10H34.7764L37.9997 17.5211H10.0642Z" stroke="black" stroke-width="2" stroke-linecap="round" stroke-linejoin="round"/>
<path d="M19.1972 17.521V19.6699C19.1972 20.8097 18.7444 21.9029 17.9384 22.7089C17.1325 23.5149 16.0393 23.9677 14.8995 23.9677H14.2978C13.1579 23.9677 12.0648 23.5149 11.2588 22.7089C10.4528 21.9029 10 20.8097 10 19.6699V17.521" stroke="black" stroke-width="2" stroke-linecap="round" stroke-linejoin="round"/>
<path d="M28.8673 17.521V19.6699C28.8673 20.8097 28.4145 21.9029 27.6085 22.7089C26.8025 23.5149 25.7093 23.9677 24.5695 23.9677H23.495C22.3552 23.9677 21.262 23.5149 20.4561 22.7089C19.6501 21.9029 19.1973 20.8097 19.1973 19.6699V17.521" stroke="black" stroke-width="2" stroke-linecap="round" stroke-linejoin="round"/>
<path d="M38 17.521V19.6699C38 20.8097 37.5472 21.9029 36.7412 22.7089C35.9352 23.5149 34.842 23.9677 33.7022 23.9677H33.165C32.0251 23.9677 30.932 23.5149 30.126 22.7089C29.32 21.9029 28.8672 20.8097 28.8672 19.6699V17.521" stroke="black" stroke-width="2" stroke-linecap="round" stroke-linejoin="round"/>
</svg>
