<svg width="48" height="48" viewBox="0 0 48 48" fill="none" xmlns="http://www.w3.org/2000/svg">
<path d="M23.5384 18.6154C25.9175 18.6154 27.8461 16.6868 27.8461 14.3077C27.8461 11.9286 25.9175 10 23.5384 10C21.1593 10 19.2307 11.9286 19.2307 14.3077C19.2307 16.6868 21.1593 18.6154 23.5384 18.6154Z" stroke="black" stroke-width="2" stroke-linecap="round" stroke-linejoin="round"/>
<path d="M31.0769 26.1537C31.0769 24.1544 30.2827 22.2369 28.869 20.8232C27.4552 19.4095 25.5378 18.6152 23.5385 18.6152C21.5391 18.6152 19.6217 19.4095 18.208 20.8232C16.7942 22.2369 16 24.1544 16 26.1537V29.3845H19.2308L20.3077 37.9999H26.7692L27.8462 29.3845H31.0769V26.1537Z" stroke="black" stroke-width="2" stroke-linecap="round" stroke-linejoin="round"/>
</svg>
