<svg width="48" height="48" viewBox="0 0 48 48" fill="none" xmlns="http://www.w3.org/2000/svg">
<path d="M34.1463 10C36.2485 10.1337 37.6571 11.3847 38.5897 13.1378C39.4117 14.6836 38.9641 16.3904 37.5555 17.746C31.3415 23.7285 25.1239 29.7042 18.8956 35.6714C18.6353 35.9199 18.2751 36.1135 17.9256 36.2266C15.2599 37.092 12.5889 37.9369 9.90892 38.7646C9.63967 38.8486 9.31337 38.7629 9.01381 38.7578C9.02095 38.4921 8.96211 38.2059 9.04413 37.9626C9.91427 35.3612 10.7969 32.7632 11.7045 30.1738C11.8222 29.8396 12.0468 29.5072 12.3072 29.2552C18.4944 23.2898 24.6995 17.3398 30.8886 11.3761C31.7748 10.5244 32.809 10.0651 34.1463 10ZM30.0363 13.7239C24.4856 19.057 18.9295 24.3952 13.4269 29.682C15.0977 31.2894 16.8344 32.9603 18.5051 34.566C24.0148 29.269 29.5727 23.929 35.1074 18.608C33.4313 16.9936 31.691 15.3176 30.0363 13.7239ZM35.9472 18.0047C37.272 16.8874 38.5309 15.7341 37.889 13.8935C37.354 12.3581 36.2236 11.2373 34.494 10.9425C32.7109 10.6392 31.6624 11.7874 30.6532 12.9184C32.4274 14.6236 34.1677 16.2945 35.9472 18.0047ZM17.692 35.38C15.9482 33.7023 14.2792 32.0983 12.5711 30.4548C12.3089 31.2072 12.1378 32.0332 11.7473 32.7461C10.9164 34.2593 11.2516 35.4075 12.6905 36.3294C12.7636 36.3757 12.8064 36.4768 12.8831 36.5025C13.1149 36.5796 13.3877 36.7356 13.5856 36.6773C14.9622 36.2729 16.3244 35.8188 17.692 35.38ZM10.722 35.8719C10.5259 36.4528 10.319 37.0612 10.0694 37.7964C10.8486 37.5462 11.4531 37.3525 12.0647 37.1554C11.61 36.7219 11.1999 36.3294 10.722 35.8719Z" fill="black"/>
<path d="M29.7989 17.2887C29.6331 17.4892 29.5065 17.676 29.3478 17.8302C25.4661 21.5678 21.5879 25.3054 17.6829 29.019C17.4743 29.2178 17.0482 29.2058 16.7236 29.2915C16.8306 28.9984 16.8502 28.6248 17.0553 28.4261C20.921 24.6765 24.8081 20.944 28.7023 17.2218C28.8878 17.0436 29.1891 16.9545 29.453 16.8928C29.5226 16.8774 29.6563 17.1207 29.7989 17.2887Z" fill="black"/>
<path d="M19.1063 31.6647C18.9672 31.3048 18.7943 31.0786 18.8299 30.8867C18.8656 30.6948 19.0974 30.5268 19.2632 30.3674C23.0826 26.6932 26.9037 23.0208 30.7248 19.35C30.8514 19.2283 30.9638 19.0484 31.1153 19.0107C31.3115 18.961 31.5754 18.9696 31.7358 19.0672C31.8214 19.1204 31.8054 19.434 31.7358 19.5882C31.6574 19.7596 31.4684 19.8881 31.3222 20.0286C27.5242 23.6823 23.7245 27.3342 19.923 30.9844C19.7197 31.1763 19.4897 31.346 19.1063 31.6647Z" fill="black"/>
</svg>
