<svg width="48" height="48" viewBox="0 0 48 48" fill="none" xmlns="http://www.w3.org/2000/svg">
<path d="M20.7692 38H12.1538C11.5826 38 11.0348 37.773 10.6308 37.3691C10.2269 36.9652 10 36.4174 10 35.8461V14.3077C10 13.7364 10.2269 13.1886 10.6308 12.7847C11.0348 12.3807 11.5826 12.1538 12.1538 12.1538H15.3846" stroke="black" stroke-width="2" stroke-linecap="round" stroke-linejoin="round"/>
<path d="M26.1538 12.1538H29.3846C29.9558 12.1538 30.5037 12.3807 30.9076 12.7847C31.3115 13.1886 31.5384 13.7364 31.5384 14.3077V18.6153" stroke="black" stroke-width="2" stroke-linecap="round" stroke-linejoin="round"/>
<path d="M23.9999 10H17.5384C16.3488 10 15.3845 10.9643 15.3845 12.1538V13.2308C15.3845 14.4203 16.3488 15.3846 17.5384 15.3846H23.9999C25.1894 15.3846 26.1538 14.4203 26.1538 13.2308V12.1538C26.1538 10.9643 25.1894 10 23.9999 10Z" stroke="black" stroke-width="2" stroke-linecap="round" stroke-linejoin="round"/>
<path d="M31 38C34.866 38 38 34.866 38 31C38 27.134 34.866 24 31 24C27.134 24 24 27.134 24 31C24 34.866 27.134 38 31 38Z" stroke="black" stroke-width="2" stroke-linecap="round" stroke-linejoin="round"/>
<path d="M26.0461 35.9541L35.9538 26.0464" stroke="black" stroke-width="2" stroke-linecap="round" stroke-linejoin="round"/>
</svg>
