<svg width="48" height="48" viewBox="0 0 48 48" fill="none" xmlns="http://www.w3.org/2000/svg">
<path d="M25.0871 10.7048L28.5198 17.9314C28.5978 18.1148 28.7207 18.2737 28.876 18.3922C29.0313 18.5107 29.2137 18.5847 29.4049 18.6068L36.9828 19.7774C37.2022 19.8068 37.4091 19.9007 37.5792 20.0481C37.7494 20.1956 37.8758 20.3904 37.9437 20.61C38.0116 20.8295 38.0182 21.0647 37.9628 21.288C37.9073 21.5113 37.7921 21.7135 37.6305 21.8711L32.1684 27.5218C32.029 27.6576 31.9243 27.8276 31.864 28.0163C31.8037 28.2051 31.7896 28.4065 31.8229 28.6024L33.1399 36.5494C33.178 36.7777 33.1539 37.0127 33.0703 37.2274C32.9867 37.4422 32.847 37.6282 32.6671 37.7643C32.4871 37.9003 32.2741 37.981 32.0524 37.997C31.8306 38.0131 31.609 37.9639 31.4127 37.8551L24.5905 34.0955C24.4158 34.0061 24.2238 33.9596 24.0292 33.9596C23.8346 33.9596 23.6426 34.0061 23.4679 34.0955L16.6456 37.8551C16.4494 37.9639 16.2277 38.0131 16.006 37.997C15.7843 37.981 15.5713 37.9003 15.3913 37.7643C15.2114 37.6282 15.0716 37.4422 14.9881 37.2274C14.9045 37.0127 14.8804 36.7777 14.9185 36.5494L16.2354 28.5124C16.2688 28.3165 16.2547 28.115 16.1944 27.9263C16.134 27.7376 16.0294 27.5676 15.89 27.4317L10.3631 21.8711C10.1996 21.7092 10.0846 21.5014 10.0321 21.2727C9.97956 21.0441 9.99172 20.8045 10.0671 20.5829C10.1425 20.3613 10.2779 20.1673 10.4569 20.0244C10.6359 19.8814 10.8508 19.7956 11.0756 19.7774L18.6534 18.6068C18.8447 18.5847 19.0271 18.5107 19.1824 18.3922C19.3377 18.2737 19.4605 18.1148 19.5386 17.9314L22.9713 10.7048C23.0648 10.4943 23.2141 10.3161 23.4015 10.1912C23.589 10.0664 23.8068 10 24.0292 10C24.2516 10 24.4694 10.0664 24.6569 10.1912C24.8443 10.3161 24.9936 10.4943 25.0871 10.7048Z" stroke="black" stroke-width="2" stroke-linecap="round" stroke-linejoin="round"/>
</svg>
