<svg width="48" height="48" viewBox="0 0 48 48" fill="none" xmlns="http://www.w3.org/2000/svg">
<path d="M35.8462 17H12.1538C10.9643 17 10 18.0447 10 19.3333V35.6667C10 36.9553 10.9643 38 12.1538 38H35.8462C37.0357 38 38 36.9553 38 35.6667V19.3333C38 18.0447 37.0357 17 35.8462 17Z" stroke="black" stroke-width="2" stroke-linecap="round" stroke-linejoin="round"/>
<path d="M10 26.3335H38" stroke="black" stroke-width="2" stroke-linecap="round" stroke-linejoin="round"/>
<path d="M24 24V28.6667" stroke="black" stroke-width="2" stroke-linecap="round" stroke-linejoin="round"/>
<path d="M30.4614 17C30.4614 15.1435 29.7806 13.363 28.5689 12.0503C27.3571 10.7375 25.7136 10 23.9999 10C22.2862 10 20.6426 10.7375 19.4309 12.0503C18.2191 13.363 17.5383 15.1435 17.5383 17" stroke="black" stroke-width="2" stroke-linecap="round" stroke-linejoin="round"/>
</svg>
