<svg width="48" height="48" viewBox="0 0 48 48" fill="none" xmlns="http://www.w3.org/2000/svg">
<path d="M28.2856 25.0714C33.6112 25.0714 37.9284 23.1526 37.9284 20.7857C37.9284 18.4188 33.6112 16.5 28.2856 16.5C22.96 16.5 18.6427 18.4188 18.6427 20.7857C18.6427 23.1526 22.96 25.0714 28.2856 25.0714Z" stroke="black" stroke-width="2" stroke-linecap="round" stroke-linejoin="round"/>
<path d="M18.6427 20.7856V33.6428C18.6427 35.9999 22.9284 37.9285 28.2856 37.9285C33.6427 37.9285 37.9284 35.9999 37.9284 33.6428V20.7856" stroke="black" stroke-width="2" stroke-linecap="round" stroke-linejoin="round"/>
<path d="M37.9284 27.2144C37.9284 29.5715 33.6427 31.5001 28.2856 31.5001C22.9284 31.5001 18.6427 29.5715 18.6427 27.2144" stroke="black" stroke-width="2" stroke-linecap="round" stroke-linejoin="round"/>
<path d="M28.0713 12.2144C25.5673 10.6691 22.6527 9.92179 19.7141 10.0715C14.3784 10.0715 10.0713 12.0001 10.0713 14.3573C10.0713 15.6215 11.3141 16.7573 13.2856 17.5715" stroke="black" stroke-width="2" stroke-linecap="round" stroke-linejoin="round"/>
<path d="M13.2856 30.4288C11.3141 29.6146 10.0713 28.4788 10.0713 27.2146V14.3574" stroke="black" stroke-width="2" stroke-linecap="round" stroke-linejoin="round"/>
<path d="M13.2856 23.9999C11.3141 23.1856 10.0713 22.0499 10.0713 20.7856" stroke="black" stroke-width="2" stroke-linecap="round" stroke-linejoin="round"/>
</svg>
