<svg width="48" height="48" viewBox="0 0 48 48" fill="none" xmlns="http://www.w3.org/2000/svg">
<path d="M35.7733 19.6923C35.7733 25.0554 24.3866 38 24.3866 38C24.3866 38 13 25.0554 13 19.6923C13 17.1217 14.1997 14.6565 16.3351 12.8388C18.4705 11.0212 21.3667 10 24.3866 10C27.4066 10 30.3028 11.0212 32.4382 12.8388C34.5736 14.6565 35.7733 17.1217 35.7733 19.6923Z" stroke="black" stroke-width="2" stroke-linecap="round" stroke-linejoin="round"/>
<path d="M35.7733 19.6923C35.7733 25.0554 24.3866 38 24.3866 38C24.3866 38 13 25.0554 13 19.6923C13 17.1217 14.1997 14.6565 16.3351 12.8388C18.4705 11.0212 21.3667 10 24.3866 10C27.4066 10 30.3028 11.0212 32.4382 12.8388C34.5736 14.6565 35.7733 17.1217 35.7733 19.6923Z" stroke="black" stroke-opacity="0.2" stroke-width="2" stroke-linecap="round" stroke-linejoin="round"/>
</svg>
