<svg width="48" height="48" viewBox="0 0 48 48" fill="none" xmlns="http://www.w3.org/2000/svg">
<path d="M35.4155 20.416C36.2355 21.1497 36.926 21.8618 37.4439 22.4229C37.8018 22.8194 37.9999 23.3346 37.9999 23.8687C37.9999 24.4029 37.8018 24.918 37.4439 25.3146C35.1781 27.753 30.0206 32.5005 23.9999 32.5005H23.1367" stroke="black" stroke-width="2" stroke-linecap="round" stroke-linejoin="round"/>
<path d="M17.2456 30.6235C14.7459 29.2235 12.4873 27.4312 10.556 25.3149C10.1981 24.9184 10 24.4032 10 23.8691C10 23.335 10.1981 22.8198 10.556 22.4233C12.8218 19.9848 17.9793 15.2373 24 15.2373C26.3733 15.2869 28.6959 15.9325 30.7544 17.1147" stroke="black" stroke-width="2" stroke-linecap="round" stroke-linejoin="round"/>
<path d="M35.8688 12L12.1313 35.7375" stroke="black" stroke-width="2" stroke-linecap="round" stroke-linejoin="round"/>
<path d="M20.9573 26.9113C20.1468 26.1057 19.6889 25.0114 19.6841 23.8686C19.6841 22.724 20.1388 21.6262 20.9482 20.8168C21.7576 20.0074 22.8553 19.5527 24 19.5527C25.1428 19.5576 26.237 20.0154 27.0427 20.8259" stroke="black" stroke-width="2" stroke-linecap="round" stroke-linejoin="round"/>
<path d="M27.7546 26.0264C27.3704 26.683 26.8195 27.2265 26.1577 27.6017" stroke="black" stroke-width="2" stroke-linecap="round" stroke-linejoin="round"/>
</svg>
