<svg width="48" height="48" viewBox="0 0 48 48" fill="none" xmlns="http://www.w3.org/2000/svg">
<path d="M34.4887 36.9262L20.076 31.5538C19.6494 31.4032 19.2675 31.1476 18.9655 30.8106C18.6636 30.4737 18.4513 30.0662 18.3481 29.6256C18.245 29.1851 18.2543 28.7257 18.3753 28.2897C18.4962 27.8537 18.725 27.4552 19.0403 27.1308L28.0806 18.0905C28.4146 17.7775 28.8221 17.5539 29.2655 17.4404C29.7089 17.3269 30.1738 17.3272 30.6171 17.4412C31.0604 17.5553 31.4677 17.7794 31.8012 18.0928C32.1348 18.4062 32.3838 18.7987 32.5253 19.234L37.8761 33.6467C38.0247 34.1136 38.04 34.6128 37.9204 35.0879C37.8007 35.5631 37.5508 35.9955 37.1988 36.3363C36.8467 36.6771 36.4065 36.9129 35.9277 37.0172C35.4489 37.1214 34.9505 37.0899 34.4887 36.9262Z" stroke="black" stroke-width="2" stroke-linecap="round" stroke-linejoin="round"/>
<path d="M13.3442 23.83C14.3023 23.2954 15.4244 23.134 16.4943 23.3769" stroke="black" stroke-width="2" stroke-linecap="round" stroke-linejoin="round"/>
<path d="M18.2635 17.6812C17.6525 16.7602 17.3993 15.6475 17.5515 14.5527" stroke="black" stroke-width="2" stroke-linecap="round" stroke-linejoin="round"/>
<path d="M23.2262 10C22.4699 12.3165 22.5695 14.8275 23.5066 17.0769" stroke="black" stroke-width="2" stroke-linecap="round" stroke-linejoin="round"/>
<path d="M11.0788 16.6024C11.6746 16.6024 12.1576 16.1194 12.1576 15.5236C12.1576 14.9278 11.6746 14.4448 11.0788 14.4448C10.483 14.4448 10 14.9278 10 15.5236C10 16.1194 10.483 16.6024 11.0788 16.6024Z" stroke="black" stroke-width="2" stroke-linecap="round" stroke-linejoin="round"/>
</svg>
