<svg width="48" height="48" viewBox="0 0 48 48" fill="none" xmlns="http://www.w3.org/2000/svg">
<path d="M24 30.5376V32.7096" stroke="black" stroke-width="2" stroke-linecap="round" stroke-linejoin="round"/>
<path d="M24 19.7632V21.7847" stroke="black" stroke-width="2" stroke-linecap="round" stroke-linejoin="round"/>
<path d="M24 38C32.1667 38 38 35.3333 38 29.3978C38 22.9462 34.5 18.6452 27.5 15.4194L30.2533 12.1505C30.3932 11.9361 30.4691 11.6913 30.4733 11.4411C30.4774 11.1909 30.4098 10.9441 30.2771 10.7258C30.1444 10.5075 29.9515 10.3253 29.7179 10.1979C29.4842 10.0704 29.2182 10.0022 28.9467 10H19.0533C18.7818 10.0022 18.5158 10.0704 18.2821 10.1979C18.0485 10.3253 17.8556 10.5075 17.7229 10.7258C17.5902 10.9441 17.5226 11.1909 17.5267 11.4411C17.5309 11.6913 17.6068 11.9361 17.7467 12.1505L20.5 15.4409C13.5 18.6882 10 22.9892 10 29.4409C10 35.3333 15.8333 38 24 38Z" stroke="black" stroke-width="2" stroke-linecap="round" stroke-linejoin="round"/>
<path d="M21.6672 29.5487C21.9519 29.8602 22.3102 30.1074 22.7147 30.2714C23.1192 30.4354 23.559 30.5119 24.0005 30.4949C24.6754 30.5373 25.3417 30.3369 25.8595 29.9359C26.3774 29.5348 26.7063 28.9644 26.7772 28.3444C26.7063 27.7244 26.3774 27.154 25.8595 26.7529C25.3417 26.3519 24.6754 26.1515 24.0005 26.1939C23.3257 26.2363 22.6594 26.0359 22.1415 25.6348C21.6237 25.2337 21.2948 24.6633 21.2239 24.0433C21.2891 23.4212 21.6164 22.8474 22.1356 22.4453C22.6548 22.0432 23.3244 21.8448 24.0005 21.8928C24.4343 21.8683 24.8685 21.9328 25.272 22.0815C25.6754 22.2303 26.0381 22.4596 26.3339 22.753" stroke="black" stroke-width="2" stroke-linecap="round" stroke-linejoin="round"/>
</svg>
