<svg width="48" height="48" viewBox="0 0 48 48" fill="none" xmlns="http://www.w3.org/2000/svg">
<path d="M24.0001 26.154C26.9739 26.154 29.3847 23.7432 29.3847 20.7694C29.3847 17.7955 26.9739 15.3848 24.0001 15.3848C21.0263 15.3848 18.6155 17.7955 18.6155 20.7694C18.6155 23.7432 21.0263 26.154 24.0001 26.154Z" stroke="black" stroke-width="2" stroke-linecap="round" stroke-linejoin="round"/>
<path d="M14.8032 34.554C15.7644 32.9763 17.1152 31.6725 18.7258 30.7677C20.3365 29.8629 22.1528 29.3877 24.0001 29.3877C25.8475 29.3877 27.6638 29.8629 29.2745 30.7677C30.8851 31.6725 32.2359 32.9763 33.1971 34.554" stroke="black" stroke-width="2" stroke-linecap="round" stroke-linejoin="round"/>
<path d="M24 38C31.732 38 38 31.732 38 24C38 16.268 31.732 10 24 10C16.268 10 10 16.268 10 24C10 31.732 16.268 38 24 38Z" stroke="black" stroke-width="2" stroke-linecap="round" stroke-linejoin="round"/>
</svg>
