<svg width="48" height="48" viewBox="0 0 48 48" fill="none" xmlns="http://www.w3.org/2000/svg">
<path d="M17.9059 19.9579C18.0805 18.3965 18.6179 16.8975 19.4749 15.5807C20.332 14.2639 21.4851 13.1656 22.8421 12.3737C24.1991 11.5818 25.7225 11.1182 27.2906 11.0198C28.8587 10.9214 30.428 11.191 31.8734 11.807C33.3188 12.4231 34.6001 13.3686 35.615 14.5679C36.63 15.7673 37.3505 17.1873 37.7189 18.7147C38.0874 20.2421 38.0937 21.8344 37.7373 23.3646C37.3808 24.8949 36.6716 26.3205 35.6661 27.5279" stroke="black" stroke-width="2" stroke-linecap="round" stroke-linejoin="round"/>
<path d="M27.917 16.5991V21.0784H31.2764" stroke="black" stroke-width="2" stroke-linecap="round" stroke-linejoin="round"/>
<path d="M10 25.5566H18.9585C19.6938 25.5566 20.4219 25.7015 21.1012 25.9828C21.7805 26.2642 22.3977 26.6766 22.9176 27.1966C23.4376 27.7165 23.85 28.3337 24.1314 29.013C24.4127 29.6923 24.5576 30.4204 24.5576 31.1557" stroke="black" stroke-width="2" stroke-linecap="round" stroke-linejoin="round"/>
<path d="M17.8387 31.1562H29.0368C30.2248 31.1562 31.3641 31.6282 32.2041 32.4682C33.0441 33.3082 33.516 34.4475 33.516 35.6355C33.516 35.9325 33.3981 36.2173 33.1881 36.4273C32.9781 36.6373 32.6932 36.7553 32.3962 36.7553H10" stroke="black" stroke-width="2" stroke-linecap="round" stroke-linejoin="round"/>
</svg>
