<svg width="30" height="30" viewBox="0 0 30 30" fill="none" xmlns="http://www.w3.org/2000/svg">
<path d="M23.5709 9.64369C25.9378 9.64369 27.8566 7.72491 27.8566 5.35798C27.8566 2.99105 25.9378 1.07227 23.5709 1.07227C21.2039 1.07227 19.2852 2.99105 19.2852 5.35798C19.2852 7.72491 21.2039 9.64369 23.5709 9.64369Z" stroke="#2B2B2B" stroke-width="2" stroke-linecap="round" stroke-linejoin="round"/>
<path d="M23.571 13.9297C18.2139 13.9297 18.2139 28.9297 18.2139 28.9297H28.9282C28.9282 28.9297 28.9282 13.9297 23.571 13.9297Z" stroke="#2B2B2B" stroke-width="2" stroke-linecap="round" stroke-linejoin="round"/>
<path d="M6.42829 9.64369C8.79523 9.64369 10.714 7.72491 10.714 5.35798C10.714 2.99105 8.79523 1.07227 6.42829 1.07227C4.06136 1.07227 2.14258 2.99105 2.14258 5.35798C2.14258 7.72491 4.06136 9.64369 6.42829 9.64369Z" stroke="#2B2B2B" stroke-width="2" stroke-linecap="round" stroke-linejoin="round"/>
<path d="M6.42843 28.9297C1.07129 28.9297 1.07129 13.9297 1.07129 13.9297H11.7856C11.7856 13.9297 11.7856 28.9297 6.42843 28.9297Z" stroke="#2B2B2B" stroke-width="2" stroke-linecap="round" stroke-linejoin="round"/>
</svg>
